<?xml version="1.0" encoding="UTF-8" standalone="no"?>
<!DOCTYPE svg PUBLIC "-//W3C//DTD SVG 1.1//EN" "http://www.w3.org/Graphics/SVG/1.1/DTD/svg11.dtd">
<svg width="100%" height="100%" viewBox="0 0 620 620" version="1.1" xmlns="http://www.w3.org/2000/svg" xmlns:xlink="http://www.w3.org/1999/xlink" xml:space="preserve" style="fill-rule:evenodd;clip-rule:evenodd;stroke-linejoin:round;stroke-miterlimit:1.41421;">
    <path d="M413.472,120.841C413.801,120.853 414.127,120.874 414.453,120.915C415.25,121.017 416.034,121.218 416.78,121.513C418.228,122.084 419.53,123.007 420.549,124.183C421.368,125.129 422.002,126.234 422.403,127.419C422.636,128.107 422.792,128.822 422.865,129.545C422.897,129.858 422.91,130.171 422.914,130.486L422.914,136.945C422.907,137.505 427.37,145.217 429.59,145.685C433.63,146.536 437.64,147.527 441.611,148.656C446.573,150.065 451.475,151.689 456.298,153.52C458.761,154.455 464.496,155.048 464.695,154.787C465.181,154.148 465.747,153.57 466.376,153.071C467.655,152.054 469.19,151.372 470.801,151.101C471.959,150.906 473.15,150.924 474.302,151.154C475.014,151.296 475.709,151.518 476.372,151.816C476.659,151.945 476.938,152.09 477.213,152.245L495.232,162.648C495.503,162.809 495.769,162.978 496.025,163.162C496.613,163.587 497.154,164.078 497.633,164.623C498.612,165.738 499.328,167.078 499.712,168.511C500.075,169.866 500.14,171.298 499.899,172.681C499.761,173.475 499.523,174.252 499.193,174.987C499.064,175.274 500.311,177.742 500.705,178.037C502.861,179.672 504.987,181.347 507.071,183.073C510.849,186.205 514.498,189.492 518.004,192.925C523.065,197.881 527.829,203.14 532.262,208.665C536.77,214.285 540.935,220.18 544.729,226.306C544.816,226.189 544.816,226.191 544.906,226.075C545.133,225.793 545.368,225.518 545.619,225.257C546.223,224.627 546.901,224.067 547.634,223.593C549.385,222.461 551.442,221.831 553.527,221.788C554.399,221.77 555.273,221.854 556.126,222.036C557.026,222.229 557.901,222.533 558.727,222.938C559.761,223.445 560.716,224.11 561.548,224.905C562.507,225.819 563.304,226.903 563.886,228.092C564.508,229.362 564.891,230.743 565.006,232.152C565.099,233.298 565.016,234.457 564.76,235.578C564.684,235.914 564.592,236.247 564.485,236.574C564.433,236.732 564.375,236.889 564.319,237.045L554.521,262.625C554.182,263.212 553.931,263.86 553.505,264.387C552.642,265.454 551.463,266.221 550.137,266.577C549.483,266.753 548.792,266.826 548.115,266.791C547.438,266.756 546.789,266.51 546.126,266.37L520.527,256.564C520.38,256.504 520.232,256.445 520.087,256.382C519.999,256.345 519.914,256.302 519.828,256.262C519.601,256.155 519.377,256.041 519.158,255.919C518.058,255.307 517.062,254.511 516.224,253.572C515.474,252.732 514.851,251.779 514.382,250.755C513.702,249.268 513.35,247.635 513.358,246C513.366,244.451 513.697,242.906 514.325,241.489C514.717,240.602 515.225,239.767 515.83,239.01C516.7,237.922 517.772,236.999 518.976,236.3C520.334,235.512 521.854,235.013 523.414,234.842C523.252,234.595 523.09,234.349 522.927,234.103C521.664,232.208 520.368,230.337 519.027,228.496C516.326,224.788 513.459,221.2 510.439,217.747C502.301,208.442 493.045,200.123 482.938,193.006C475.032,187.44 466.609,182.611 457.814,178.594C450.332,175.176 442.58,172.347 434.656,170.14C425.021,167.457 415.129,165.697 405.16,164.898C396.442,164.2 387.666,164.238 378.955,165.016C370.013,165.814 361.14,167.394 352.471,169.728C344.328,171.921 336.364,174.777 328.677,178.246C320.572,181.903 312.774,186.242 305.405,191.219C299.838,194.978 294.515,199.098 289.483,203.548C284.069,208.334 278.991,213.501 274.298,218.996C268.111,226.238 262.593,234.05 257.829,242.296C254.164,248.64 250.944,255.24 248.199,262.032C244.081,272.221 241.034,282.841 239.129,293.664C237.523,302.787 236.728,312.052 236.766,321.314C236.81,332.497 238.071,343.675 240.518,354.587C242.793,364.73 246.094,374.641 250.328,384.134C254.497,393.479 259.571,402.421 265.478,410.776C271.929,419.899 279.37,428.322 287.629,435.848C294.708,442.297 302.384,448.09 310.525,453.133C318.484,458.063 326.885,462.28 335.595,465.716C343.105,468.678 350.842,471.064 358.717,472.84C365.848,474.448 373.093,475.556 380.379,476.153C394.56,477.313 408.895,476.517 422.858,473.777C442.669,469.89 461.705,462.113 478.592,451.052C487.128,445.461 495.108,439.026 502.379,431.867C507.874,426.457 512.965,420.636 517.596,414.47C522.614,407.789 527.095,400.705 530.984,393.31C534.974,385.724 538.341,377.811 541.042,369.677C544.053,360.612 546.236,351.272 547.55,341.811C549.341,328.919 549.513,315.807 548.042,302.874C547.521,298.293 546.795,293.735 545.867,289.218C545.352,286.712 544.771,284.221 544.138,281.742L544.116,281.66C544.065,280.84 543.858,280.016 543.963,279.201C544.177,277.543 545.022,276.031 546.323,274.979C546.961,274.463 547.772,274.207 548.497,273.821L557.648,271.004C558.339,270.909 559.023,270.701 559.72,270.718C560.417,270.735 561.121,270.868 561.776,271.105C563.105,271.587 564.24,272.488 565.01,273.673C565.39,274.258 565.598,274.939 565.853,275.588C565.864,275.614 566.19,276.899 566.195,276.918C566.535,278.263 566.858,279.612 567.167,280.964C568.453,286.612 569.464,292.323 570.192,298.069C571.974,312.133 572.059,326.405 570.46,340.491C568.804,355.072 565.345,369.446 560.197,383.188C556.473,393.13 551.869,402.742 546.45,411.871C540.762,421.456 534.179,430.507 526.807,438.866C517.664,449.234 507.307,458.524 496.011,466.492C486.131,473.461 475.54,479.413 464.463,484.257C457.925,487.116 451.218,489.589 444.386,491.651C437.004,493.88 429.477,495.629 421.868,496.882C412.217,498.472 402.434,499.258 392.654,499.236C385.888,499.221 379.124,498.818 372.404,498.034C360.184,496.609 348.114,493.919 336.443,490.027C325.28,486.305 314.484,481.485 304.261,475.657C293.306,469.411 283.013,462.006 273.616,453.597C265.901,446.693 258.792,439.112 252.397,430.971C238.876,413.758 228.585,394.037 222.122,373.128C219.581,364.906 217.636,356.5 216.312,347.997C214.638,337.243 213.955,326.336 214.276,315.458C214.52,307.17 215.345,298.901 216.736,290.727C218.258,281.788 220.462,272.965 223.316,264.358C228.41,248.995 235.586,234.328 244.598,220.884C248.783,214.641 253.361,208.662 258.299,202.996C264.572,195.799 271.425,189.108 278.773,183.013C285.27,177.623 292.153,172.699 299.349,168.287C311.81,160.647 325.209,154.534 339.144,150.123C344.585,148.401 350.11,146.938 355.692,145.747C358.998,145.041 362.891,137.504 362.884,136.945L362.884,130.486C362.888,130.171 362.901,129.857 362.933,129.543C363.015,128.742 363.197,127.951 363.474,127.194C364.01,125.73 364.903,124.405 366.057,123.357C367.04,122.463 368.206,121.775 369.465,121.349C370.153,121.116 370.868,120.961 371.591,120.887C371.904,120.856 372.217,120.842 372.531,120.838C386.178,120.838 399.827,120.669 413.472,120.841L413.472,120.841ZM395.29,470.925L390.508,470.925C389.188,470.925 388.116,469.853 388.116,468.533L388.116,450.997C388.116,449.677 389.188,448.605 390.508,448.605L395.29,448.605C396.61,448.605 397.682,449.677 397.682,450.997L397.682,468.533C397.682,469.853 396.611,470.924 395.29,470.925ZM190.699,460.03L173.403,460.03C172.988,460.024 172.577,460.002 172.166,459.945C171.265,459.82 170.384,459.557 169.562,459.169C168.514,458.675 167.565,457.978 166.781,457.126C166.053,456.335 165.469,455.413 165.064,454.417C164.722,453.574 164.509,452.68 164.433,451.773C164.365,450.949 164.411,450.116 164.57,449.305C164.839,447.924 165.436,446.612 166.3,445.502C167.114,444.457 168.158,443.598 169.339,443C170.224,442.552 171.183,442.252 172.166,442.115C172.577,442.058 172.988,442.036 173.403,442.03C179.251,442.03 185.099,441.953 190.947,442.033C191.361,442.051 191.771,442.085 192.18,442.153C193.077,442.303 193.951,442.589 194.763,443C195.796,443.523 196.725,444.246 197.486,445.119C198.192,445.93 198.75,446.867 199.127,447.874C199.446,448.726 199.635,449.626 199.685,450.534C199.731,451.36 199.662,452.191 199.481,452.998C199.192,454.29 198.614,455.513 197.801,456.558C196.988,457.603 195.944,458.463 194.763,459.06C193.877,459.508 192.918,459.808 191.935,459.945C191.525,460.002 191.114,460.024 190.699,460.03L190.699,460.03ZM150.403,410.03L118.403,410.03C118.29,410.028 118.178,410.028 118.066,410.024C117.73,410.011 117.394,409.98 117.061,409.93C116.062,409.779 115.09,409.459 114.197,408.987C113.403,408.568 112.674,408.029 112.039,407.394C111.086,406.441 110.353,405.275 109.908,404.003C109.5,402.837 109.336,401.589 109.428,400.358C109.495,399.462 109.697,398.578 110.025,397.742C110.435,396.697 111.042,395.731 111.805,394.909C112.569,394.086 113.486,393.408 114.498,392.921C115.307,392.532 116.174,392.264 117.061,392.131C117.394,392.08 117.73,392.049 118.066,392.036C118.178,392.032 118.29,392.032 118.403,392.03L150.403,392.03C150.515,392.032 150.627,392.034 150.739,392.036C150.851,392.043 150.963,392.047 151.075,392.055C151.411,392.08 151.745,392.124 152.076,392.187C152.958,392.354 153.814,392.654 154.608,393.073C155.601,393.598 156.492,394.309 157.224,395.16C157.957,396.01 158.527,396.998 158.898,398.058C159.194,398.905 159.363,399.796 159.396,400.694C159.426,401.479 159.352,402.267 159.177,403.033C158.902,404.237 158.377,405.381 157.644,406.374C156.844,407.459 155.8,408.357 154.608,408.987C153.715,409.459 152.743,409.779 151.744,409.93C151.411,409.98 151.076,410.011 150.739,410.024C150.627,410.028 150.515,410.028 150.403,410.03L150.403,410.03ZM375.89,334.801C376.032,334.814 376.175,334.824 376.317,334.841C376.6,334.875 376.882,334.923 377.161,334.983C377.999,335.166 378.809,335.468 379.561,335.879C380.314,336.289 381.006,336.808 381.612,337.414C382.522,338.323 383.231,339.427 383.681,340.633C384.08,341.703 384.273,342.849 384.246,343.992C384.225,344.849 384.082,345.702 383.821,346.518C383.516,347.471 383.052,348.371 382.453,349.171C382.282,349.4 382.1,349.62 381.908,349.832C381.812,349.937 381.711,350.038 381.612,350.142L329.698,402.056C329.595,402.154 329.494,402.255 329.388,402.351C329.177,402.543 328.957,402.725 328.728,402.896C327.813,403.581 326.768,404.089 325.664,404.385C324.836,404.607 323.977,404.709 323.12,404.689C322.263,404.669 321.41,404.525 320.594,404.264C319.369,403.873 318.232,403.216 317.28,402.351C316.329,401.486 315.567,400.417 315.061,399.234C314.611,398.184 314.364,397.048 314.337,395.906C314.31,394.763 314.502,393.617 314.902,392.546C315.201,391.743 315.616,390.984 316.13,390.298C316.301,390.069 316.483,389.849 316.675,389.638C316.771,389.532 316.872,389.431 316.97,389.328L368.884,337.414C368.988,337.315 369.089,337.214 369.194,337.118C369.511,336.83 369.849,336.565 370.204,336.324C371.269,335.603 372.487,335.116 373.756,334.902C374.178,334.831 374.606,334.79 375.034,334.78C375.177,334.777 375.32,334.78 375.462,334.78C375.605,334.787 375.748,334.794 375.89,334.801ZM169.403,336.03L57.403,336.03C56.845,336.011 56.704,336.02 56.15,335.942C54.696,335.738 53.3,335.174 52.113,334.311C51.265,333.695 50.527,332.931 49.941,332.063C49.473,331.368 49.102,330.608 48.843,329.811C48.519,328.815 48.372,327.763 48.408,326.716C48.445,325.669 48.666,324.63 49.058,323.659C49.372,322.882 49.795,322.149 50.311,321.489C51.085,320.498 52.067,319.674 53.177,319.084C54.102,318.592 55.113,318.263 56.15,318.118C56.704,318.04 56.845,318.05 57.403,318.03L169.403,318.03C169.612,318.037 169.821,318.045 170.03,318.052C170.239,318.074 170.448,318.089 170.655,318.118C171.07,318.176 171.481,318.263 171.883,318.379C173.294,318.783 174.599,319.536 175.655,320.556C176.257,321.138 176.778,321.804 177.197,322.53C177.826,323.619 178.222,324.839 178.353,326.089C178.507,327.549 178.297,329.04 177.747,330.402C177.355,331.373 176.792,332.274 176.091,333.052C175.39,333.831 174.553,334.485 173.628,334.977C172.703,335.468 171.693,335.797 170.655,335.942C170.102,336.02 169.96,336.011 169.403,336.03L169.403,336.03ZM392.899,313.076C398.177,313.076 402.462,317.361 402.462,322.638C402.462,327.916 398.177,332.201 392.899,332.201C387.621,332.201 383.336,327.916 383.336,322.638C383.336,317.361 387.621,313.076 392.899,313.076ZM264.54,327.421L247.004,327.421C245.684,327.421 244.612,326.349 244.612,325.03L244.612,320.247C244.612,318.927 245.684,317.856 247.004,317.856L264.54,317.856C265.86,317.856 266.932,318.927 266.932,320.247L266.932,325.03C266.932,326.349 265.861,327.42 264.54,327.421ZM538.794,327.421L521.258,327.421C519.938,327.421 518.866,326.349 518.866,325.03L518.866,320.247C518.866,318.927 519.938,317.856 521.258,317.856L538.794,317.856C540.114,317.856 541.186,318.927 541.186,320.247L541.186,325.03C541.186,326.349 540.115,327.42 538.794,327.421L538.794,327.421ZM90.903,252.03L73.403,252.03C72.985,252.024 72.57,252.001 72.156,251.943C71.164,251.805 70.197,251.499 69.306,251.043C68.563,250.664 67.874,250.18 67.264,249.611C66.287,248.7 65.519,247.572 65.029,246.329C64.54,245.086 64.332,243.737 64.424,242.405C64.488,241.49 64.693,240.585 65.029,239.731C65.427,238.722 66.008,237.787 66.737,236.983C67.522,236.118 68.475,235.409 69.53,234.906C70.358,234.511 71.247,234.244 72.156,234.117C72.57,234.059 72.985,234.036 73.403,234.03C79.319,234.03 85.237,233.951 91.153,234.034C91.57,234.051 91.985,234.086 92.397,234.155C93.302,234.307 94.183,234.599 95,235.017C96.04,235.549 96.973,236.284 97.734,237.171C98.44,237.994 98.995,238.945 99.365,239.965C99.82,241.221 99.99,242.575 99.86,243.904C99.73,245.234 99.301,246.53 98.612,247.674C98.182,248.388 97.652,249.042 97.042,249.611C96.371,250.237 95.604,250.759 94.775,251.154C93.947,251.549 93.059,251.816 92.15,251.943C91.736,252.001 91.321,252.024 90.903,252.03L90.903,252.03ZM192.051,252.03L124.403,252.03C124.24,252.026 124.078,252.026 123.915,252.017C123.591,251.999 123.267,251.964 122.947,251.911C121.824,251.727 120.738,251.328 119.763,250.742C118.788,250.155 117.927,249.383 117.238,248.477C116.45,247.441 115.893,246.235 115.613,244.965C115.438,244.171 115.372,243.354 115.416,242.543C115.469,241.569 115.681,240.605 116.042,239.699C116.463,238.642 117.086,237.667 117.869,236.841C118.651,236.015 119.591,235.34 120.624,234.862C121.509,234.452 122.46,234.188 123.43,234.083C123.861,234.036 123.97,234.042 124.403,234.03L192.051,234.03C192.213,234.034 192.376,234.039 192.538,234.043C192.7,234.056 192.862,234.065 193.024,234.083C193.347,234.118 193.668,234.171 193.985,234.24C195.256,234.52 196.462,235.078 197.497,235.865C198.144,236.357 198.724,236.937 199.216,237.583C199.904,238.489 200.418,239.526 200.723,240.622C201.071,241.876 201.143,243.202 200.932,244.486C200.801,245.288 200.56,246.072 200.219,246.809C199.809,247.694 199.255,248.511 198.585,249.219C197.802,250.046 196.863,250.72 195.83,251.198C194.945,251.608 193.993,251.872 193.024,251.977C192.593,252.024 192.484,252.018 192.051,252.03L192.051,252.03ZM395.29,196.671L390.508,196.671C389.188,196.671 388.116,195.599 388.116,194.28L388.116,176.743C388.116,175.423 389.188,174.352 390.508,174.352L395.29,174.352C396.61,174.352 397.682,175.423 397.682,176.743L397.682,194.28C397.682,195.599 396.611,196.67 395.29,196.671ZM200.699,172.03L183.403,172.03C182.988,172.024 182.577,172.002 182.166,171.945C181.183,171.808 180.224,171.508 179.339,171.06C178.083,170.425 176.984,169.494 176.151,168.36C175.367,167.293 174.823,166.055 174.57,164.755C174.411,163.944 174.365,163.111 174.433,162.287C174.509,161.38 174.722,160.486 175.064,159.643C175.469,158.647 176.053,157.726 176.781,156.935C177.565,156.083 178.514,155.385 179.562,154.891C180.384,154.503 181.265,154.24 182.166,154.115C182.577,154.058 182.988,154.036 183.403,154.03C189.251,154.03 195.099,153.953 200.947,154.034C201.361,154.051 201.771,154.085 202.18,154.153C203.159,154.316 204.11,154.642 204.982,155.115C206.147,155.745 207.167,156.633 207.951,157.7C208.735,158.767 209.278,160.005 209.532,161.305C209.69,162.116 209.736,162.949 209.668,163.773C209.593,164.68 209.38,165.574 209.037,166.417C208.633,167.413 208.049,168.335 207.32,169.126C206.536,169.978 205.587,170.675 204.54,171.169C203.717,171.558 202.836,171.82 201.935,171.945C201.525,172.002 201.114,172.024 200.699,172.03L200.699,172.03ZM124.403,172.03L57.403,172.03C57.24,172.026 57.078,172.026 56.915,172.017C56.591,171.999 56.267,171.964 55.947,171.912C54.824,171.727 53.738,171.329 52.763,170.742C51.927,170.239 51.175,169.6 50.543,168.857C50.017,168.237 49.576,167.547 49.234,166.809C48.688,165.628 48.403,164.331 48.403,163.03C48.403,161.892 48.621,160.756 49.042,159.699C49.463,158.642 50.086,157.667 50.869,156.841C51.651,156.015 52.591,155.34 53.624,154.862C54.509,154.452 55.46,154.188 56.43,154.083C56.861,154.036 56.97,154.042 57.403,154.03L124.403,154.03C124.565,154.034 124.727,154.039 124.89,154.043C125.052,154.056 125.214,154.065 125.376,154.083C125.699,154.118 126.02,154.171 126.337,154.24C127.608,154.52 128.813,155.078 129.849,155.865C130.496,156.357 131.076,156.937 131.567,157.584C132.256,158.49 132.77,159.526 133.075,160.622C133.423,161.876 133.495,163.202 133.284,164.486C133.153,165.288 132.912,166.072 132.571,166.809C132.161,167.694 131.607,168.511 130.937,169.219C130.154,170.046 129.215,170.72 128.182,171.198C127.297,171.608 126.345,171.872 125.376,171.977C124.945,172.024 124.836,172.018 124.403,172.03L124.403,172.03Z" style="fill:rgb(111,111,111);"/>
</svg>
